<?xml version="1.0" encoding="utf-8"?>
<!-- (c) ammap.com | SVG map of South Korea - High -->
<svg xmlns="http://www.w3.org/2000/svg" xmlns:amcharts="http://amcharts.com/ammap" xmlns:xlink="http://www.w3.org/1999/xlink" version="1.1">
	<defs>
		<style type="text/css">
			.land
			{
				fill: #CCCCCC;
				fill-opacity: 1;
				stroke:white;
				stroke-opacity: 1;
				stroke-width:0.5;
			}
		</style>

		<amcharts:ammap projection="mercator" leftLongitude="125.384458" topLatitude="38.612296" rightLongitude="131.873029" bottomLatitude="33.194027"></amcharts:ammap>

		<!-- All areas are listed in the line below. You can use this list in your script. -->
		<!--{id:"KR-11"},{id:"KR-26"},{id:"KR-27"},{id:"KR-28"},{id:"KR-29"},{id:"KR-30"},{id:"KR-31"},{id:"KR-41"},{id:"KR-42"},{id:"KR-43"},{id:"KR-44"},{id:"KR-45"},{id:"KR-46"},{id:"KR-47"},{id:"KR-48"},{id:"KR-49"},{id:"KR-50"}-->

	</defs>
	<g>
		<path id="KR-11" title="Seoul" class="land" d="M132.666,290.394L133.241,290.724L133.241,290.724L137.041,294.54L136.937,296.315L137.487,296.841L137.801,299.933L138.377,300.458L138.927,300.36L141.337,299.11L143.906,304.796L144.43,304.928L146.236,304.206L147.442,304.698L149.828,304.599L153.994,302.298L157.059,302.003L157.059,303.712L157.74,304.928L161.382,302.856L164.369,302.595L166.047,301.018L165.599,300.458L166.02,299.868L166.649,300.032L167.278,299.57L168.562,297.861L168.562,297.268L167.383,296.775L167.776,294.277L168.771,293.289L170.527,292.664L170.971,292.138L170.316,289.735L169.531,288.583L168.376,289.407L165.917,290L164.736,290.756L163.558,290.92L163.19,290.329L163.165,289.144L164.605,284.995L163.504,283.283L163.426,281.438L162.535,280.286L162.429,275.77L161.512,274.683L160.334,274.485L157.713,274.814L155.382,274.288L154.465,275.276L153.208,275.804L152.656,276.331L152.684,277.517L151.583,278.572L151.505,281.57L150.403,282.361L145.268,282.756L144.43,283.81L144.272,286.904L143.645,287.268L140.027,288.879L137.618,287.728L136.229,286.016L134.97,285.687L133.949,288.156L132.796,289.144z"/>
		<path id="KR-50" title="Sejong" class="land" d="M180.84,395.146L182.397,397.326L182.086,400.128L179.906,400.751L182.709,404.176L182.709,406.979L183.159,408.328L186.491,408.523L186.398,409.979L185.573,411.799L186.651,412.939L184.789,419.024L185.367,418.243L185.766,417.918L186.472,418.063L187.087,418.922L187.396,418.957L187.068,422.235L186.134,425.039L182.709,426.596L181.798,426.639L179.283,427.218L179.596,435.937L177.416,438.428L175.713,436.376L173.965,435.031L172.754,431.937L172.888,427.902L172.619,425.077L171.274,421.176L168.583,419.697L166.7,417.141L166.566,415.123L167.642,412.702L167.642,409.608L167.507,406.11L167.239,402.747L167.911,400.326L167.642,397.231L167.104,395.215L166.028,393.197L166.431,391.447L169.122,390.371L171.677,391.178L173.157,392.793L175.848,394.407L178.403,395.348z"/>
	</g>
</svg>